<svg xmlns="http://www.w3.org/2000/svg" viewBox="0 0 32 32" fill="none">
  <rect width="32" height="32" rx="7" fill="#059669"/>
  <path
    d="M16 6.5c-.6 0-1 .4-1 1v2.2c0 .6.4 1 1 1s1-.4 1-1V7.5c0-.6-.4-1-1-1Zm-6.2 2.3c-.35-.35-.92-.35-1.27 0l-1.55 1.55c-.35.35-.35.92 0 1.27.35.35.92.35 1.27 0l1.55-1.55c.35-.35.35-.92 0-1.27Zm14.4 0c-.35.35-.35.92 0 1.27l1.55 1.55c.35.35.92.35 1.27 0 .35-.35.35-.92 0-1.27l-1.55-1.55c-.35-.35-.92-.35-1.27 0ZM8.3 14.3c-.6 0-1 .4-1 1s.4 1 1 1h2.2c.6 0 1-.4 1-1s-.4-1-1-1H8.3Zm15.2 0c-.6 0-1 .4-1 1s.4 1 1 1h2.2c.6 0 1-.4 1-1s-.4-1-1-1h-2.2Zm-11.9 4.1-1.55 1.55c-.35.35-.35.92 0 1.27.35.35.92.35 1.27 0l1.55-1.55c.35-.35.35-.92 0-1.27-.35-.35-.92-.35-1.27 0Zm9.6 0c-.35.35-.35.92 0 1.27l1.55 1.55c.35.35.92.35 1.27 0 .35-.35.35-.92 0-1.27l-1.55-1.55c-.35-.35-.92-.35-1.27 0ZM16 20.3c-.6 0-1 .4-1 1v2.2c0 .6.4 1 1 1s1-.4 1-1v-2.2c0-.6-.4-1-1-1Z"
    fill="#ecfdf5"
  />
  <circle cx="16" cy="15" r="4.2" fill="#ecfdf5" opacity=".95"/>
</svg>
